<?xml version="1.0" encoding="utf-8"?>
<!-- Generator: Adobe Illustrator 24.3.0, SVG Export Plug-In . SVG Version: 6.00 Build 0)  -->
<svg version="1.1" id="Layer_1" xmlns="http://www.w3.org/2000/svg" xmlns:xlink="http://www.w3.org/1999/xlink" x="0px" y="0px"
	 viewBox="0 0 64 64" style="enable-background:new 0 0 64 64;" xml:space="preserve">
<style type="text/css">
	.st0{opacity:0.35;fill:#85C141;}
	.st1{fill:#85C141;}
</style>
<path class="st0" d="M21.1,47.5L21,35.7l28.2-14.3c1-0.5,1.8,0.8,1,1.5L33.7,39l-11,9.3C22.1,48.8,21.1,48.4,21.1,47.5z"/>
<path class="st1" d="M5.3,27.3L21,35.7l27.4-13.6c0.4-0.2,0.6,0.3,0.3,0.6L26,37.2c-0.6,0.4-0.6,1.4,0.1,1.7l18.2,9.7
	c0.3,0.2,0.7,0,0.9-0.3l13.7-30.8c0.4-0.9-0.4-1.9-1.4-1.7l-52,10.4C4.9,26.3,4.8,27,5.3,27.3z"/>
</svg>
