<?xml version="1.0" encoding="utf-8"?>
<!-- Generator: Adobe Illustrator 24.3.0, SVG Export Plug-In . SVG Version: 6.00 Build 0)  -->
<svg version="1.1" id="Layer_1" xmlns="http://www.w3.org/2000/svg" xmlns:xlink="http://www.w3.org/1999/xlink" x="0px" y="0px"
	 viewBox="0 0 1018 901" style="enable-background:new 0 0 1018 901;" xml:space="preserve">
<style type="text/css">
	.st0{fill:#FFFFFF;}
	.st1{fill:none;stroke:url(#SVGID_1_);stroke-width:11;}
	.st2{fill:#FCFBFF;}
	.st3{fill:#DFDFED;}
</style>
<path class="st0" d="M303.5,265.2c2.8-1.4,6.1-1.4,8.9,0L598,408c7.4,3.7,7.4,14.2,0,17.9L312.5,568.8c-2.8,1.4-6.1,1.4-8.9,0
	L17.9,425.9c-7.4-3.7-7.4-14.2,0-17.9L303.5,265.2z"/>
<linearGradient id="SVGID_1_" gradientUnits="userSpaceOnUse" x1="435.1495" y1="226.8339" x2="478.3996" y2="788.8339" gradientTransform="matrix(1 0 0 1 0 57.9999)">
	<stop  offset="0" style="stop-color:#85C141;stop-opacity:0.2"/>
	<stop  offset="0.1834" style="stop-color:#85C141"/>
	<stop  offset="1" style="stop-color:#85C141"/>
</linearGradient>
<path class="st1" d="M407,279l290.1,145.1c7.4,3.7,7.4,14.2,0,17.9L407,587l-191,98.5c-7.3,3.8-7.2,14.2,0.1,17.8l290.4,145.2"/>
<path class="st0" d="M729.5,484.2c2.8-1.4,6.1-1.4,8.9,0L1135,682.5c7.4,3.7,7.4,14.2,0,17.9L738.5,898.8c-2.8,1.4-6.1,1.4-8.9,0
	L332.9,700.4c-7.4-3.7-7.4-14.2,0-17.9L729.5,484.2z"/>
<path class="st0" d="M1391.5,333.2c2.8-1.4,6.1-1.4,8.9,0L1797,531.5c7.4,3.7,7.4,14.2,0,17.9l-396.6,198.3c-2.8,1.4-6.1,1.4-8.9,0
	L994.9,549.4c-7.4-3.7-7.4-14.2,0-17.9L1391.5,333.2z"/>
<path class="st0" d="M251.5,215l53.5,26.7l-53.5,26.7L198,241.7L251.5,215z"/>
<path class="st2" d="M198,241.7l53.5,26.7v102.7L198,344.5V241.7z"/>
<path class="st3" d="M305,241.7l-53.5,26.7v102.7l53.5-26.7V241.7z"/>
<path class="st0" d="M657.2,417l72.7,36.4l-72.7,36.4l-72.7-36.4L657.2,417z"/>
<path class="st2" d="M584.4,453.4l72.7,36.4v139.6L584.4,593V453.4z"/>
<path class="st3" d="M729.9,453.4l-72.7,36.4v139.6l72.7-36.4V453.4z"/>
<path class="st0" d="M341.5,267.6l53.5,26.7L341.5,321L288,294.4L341.5,267.6z"/>
<path class="st2" d="M288,294.4l53.5,26.7v102.7L288,397.1V294.4z"/>
<path class="st3" d="M395,294.4l-53.5,26.7v102.7l53.5-26.7V294.4z"/>
<path class="st0" d="M779.5,488.6l72.7,36.4l-72.7,36.4L706.8,525L779.5,488.6z"/>
<path class="st2" d="M706.8,524.9l72.7,36.4v139.6l-72.7-36.4V524.9z"/>
<path class="st3" d="M852.3,524.9l-72.7,36.4v139.6l72.7-36.4V524.9z"/>
<path class="st0" d="M431.5,320.3L485,347l-53.5,26.7L378,347L431.5,320.3z"/>
<path class="st2" d="M378,347l53.5,26.7v102.7L378,449.7V347z"/>
<path class="st3" d="M485,347l-53.5,26.7v102.7l53.5-26.7V347z"/>
<path class="st0" d="M901.9,560.1l72.7,36.4l-72.7,36.4l-72.7-36.4L901.9,560.1z"/>
<path class="st2" d="M829.2,596.5l72.7,36.4v139.6l-72.7-36.4V596.5z"/>
<path class="st3" d="M974.6,596.5l-72.7,36.4v139.6l72.7-36.4V596.5z"/>
<path class="st0" d="M139.5,279l53.5,26.7l-53.5,26.7L86,305.7L139.5,279z"/>
<path class="st2" d="M86,305.7l53.5,26.7v102.7L86,408.5V305.7z"/>
<path class="st3" d="M193,305.7l-53.5,26.7v102.7l53.5-26.7V305.7z"/>
<path class="st0" d="M504.9,504l72.7,36.4l-72.7,36.4l-72.7-36.4L504.9,504z"/>
<path class="st2" d="M432.2,540.4l72.7,36.4v139.6L432.2,680V540.4z"/>
<path class="st3" d="M577.6,540.4l-72.7,36.4v139.6l72.7-36.4V540.4z"/>
<path class="st0" d="M229.5,331.6l53.5,26.7L229.5,385L176,358.4L229.5,331.6z"/>
<path class="st2" d="M176,358.4l53.5,26.7v102.7L176,461.1V358.4z"/>
<path class="st3" d="M283,358.4l-53.5,26.7v102.7l53.5-26.7V358.4z"/>
<path class="st0" d="M627.3,575.6L700,612l-72.7,36.4L554.6,612L627.3,575.6z"/>
<path class="st2" d="M554.5,611.9l72.7,36.4V788l-72.7-36.4V611.9z"/>
<path class="st3" d="M700,611.9l-72.7,36.4V788l72.7-36.4V611.9z"/>
<path class="st0" d="M319.5,384.3L373,411l-53.5,26.7L266,411L319.5,384.3z"/>
<path class="st2" d="M266,411l53.5,26.7v102.7L266,513.7V411z"/>
<path class="st3" d="M373,411l-53.5,26.7v102.7l53.5-26.7V411z"/>
<path class="st0" d="M749.6,647.2l72.7,36.4L749.6,720l-72.7-36.4L749.6,647.2z"/>
<path class="st2" d="M676.9,683.5l72.7,36.4v139.6l-72.7-36.4V683.5z"/>
<path class="st3" d="M822.4,683.5l-72.7,36.4v139.6l72.7-36.4V683.5z"/>
<path class="st0" d="M928.5-78.8c2.8-1.4,6.1-1.4,8.9,0L1507,206c7.4,3.7,7.4,14.2,0,17.9L937.5,508.8c-2.8,1.4-6.1,1.4-8.9,0
	L358.9,223.9c-7.4-3.7-7.4-14.2,0-17.9L928.5-78.8z"/>
<path class="st0" d="M674.5-12L733,17.2l-58.5,29.2L616,17.2L674.5-12z"/>
<path class="st2" d="M616,17.2l58.5,29.2v112.3L616,129.6V17.2z"/>
<path class="st3" d="M733,17.2l-58.5,29.2v112.3l58.5-29.2V17.2z"/>
<path class="st2" d="M830-76.8l58.5,29.2V64.8L830,35.6V-76.8z"/>
<path class="st3" d="M947-76.8l-58.5,29.2V64.8L947,35.6V-76.8z"/>
<path class="st0" d="M567.5,35L626,64.2l-58.5,29.2L509,64.2L567.5,35z"/>
<path class="st2" d="M509,64.2l58.5,29.2v112.3L509,176.6V64.2z"/>
<path class="st3" d="M626,64.2l-58.5,29.2v112.3l58.5-29.2V64.2z"/>
<path class="st0" d="M762.5,31L821,60.2l-58.5,29.2L704,60.2L762.5,31z"/>
<path class="st2" d="M704,60.2l58.5,29.2v112.3L704,172.6V60.2z"/>
<path class="st3" d="M821,60.2l-58.5,29.2v112.3l58.5-29.2V60.2z"/>
<path class="st2" d="M918-33.8l58.5,29.2v112.3L918,78.6V-33.8z"/>
<path class="st3" d="M1035-33.8L976.5-4.5v112.3l58.5-29.2V-33.8z"/>
<path class="st0" d="M655.5,78l58.5,29.2l-58.5,29.2L597,107.2L655.5,78z"/>
<path class="st2" d="M597,107.2l58.5,29.2v112.3L597,219.6V107.2z"/>
<path class="st3" d="M714,107.2l-58.5,29.2v112.3l58.5-29.2V107.2z"/>
<path class="st0" d="M1064.5-20L1123,9.2l-58.5,29.2L1006,9.2L1064.5-20z"/>
<path class="st2" d="M1006,9.2l58.5,29.2v112.3l-58.5-29.3V9.2z"/>
<path class="st0" d="M938.5,117l58.5,29.2l-58.5,29.2L880,146.2L938.5,117z"/>
<path class="st2" d="M880,146.2l58.5,29.2v112.3L880,258.6V146.2z"/>
<path class="st3" d="M997,146.2l-58.5,29.2v112.3l58.5-29.2V146.2z"/>
<path class="st0" d="M831.5,164l58.5,29.2l-58.5,29.2L773,193.2L831.5,164z"/>
<path class="st2" d="M773,193.2l58.5,29.2v112.3L773,305.6V193.2z"/>
<path class="st3" d="M890,193.2l-58.5,29.2v112.3l58.5-29.2V193.2z"/>
<path class="st0" d="M1026.5,160l58.5,29.2l-58.5,29.2L968,189.2L1026.5,160z"/>
<path class="st2" d="M968,189.2l58.5,29.2v112.3L968,301.6V189.2z"/>
<path class="st0" d="M919.5,207l58.5,29.2l-58.5,29.2L861,236.2L919.5,207z"/>
<path class="st2" d="M861,236.2l58.5,29.2v112.3L861,348.6V236.2z"/>
<path class="st3" d="M978,236.2l-58.5,29.2v112.3l58.5-29.2V236.2z"/>
<path class="st0" d="M1007.5,250l58.5,29.2l-58.5,29.2L949,279.2L1007.5,250z"/>
<path class="st2" d="M949,279.2l58.5,29.2v112.3L949,391.6V279.2z"/>
<path class="st3" d="M1066,279.2l-58.5,29.2v112.3l58.5-29.2V279.2z"/>
<path class="st0" d="M462,137l38,19l-38,19l-38-19L462,137z"/>
<path class="st2" d="M424,156l38,19v73l-38-19V156z"/>
<path class="st3" d="M500,156l-38,19v73l38-19V156z"/>
<path class="st0" d="M523,168l38,19l-38,19l-38-19L523,168z"/>
<path class="st2" d="M485,187l38,19v73l-38-19V187z"/>
<path class="st3" d="M561,187l-38,19v73l38-19V187z"/>
<path class="st0" d="M584,199l38,19l-38,19l-38-19L584,199z"/>
<path class="st2" d="M546,218l38,19v73l-38-19V218z"/>
<path class="st3" d="M622,218l-38,19v73l38-19V218z"/>
<path class="st0" d="M706,261l38,19l-38,19l-38-19L706,261z"/>
<path class="st2" d="M668,280l38,19v73l-38-19V280z"/>
<path class="st3" d="M744,280l-38,19v73l38-19V280z"/>
<path class="st0" d="M767,292l38,19l-38,19l-38-19L767,292z"/>
<path class="st2" d="M729,311l38,19v73l-38-19V311z"/>
<path class="st3" d="M805,311l-38,19v73l38-19V311z"/>
<path class="st0" d="M828,323l38,19l-38,19l-38-19L828,323z"/>
<path class="st2" d="M790,342l38,19v73l-38-19V342z"/>
<path class="st3" d="M866,342l-38,19v73l38-19V342z"/>
<path class="st0" d="M889,354l38,19l-38,19l-38-19L889,354z"/>
<path class="st2" d="M851,373l38,19v73l-38-19V373z"/>
<path class="st3" d="M927,373l-38,19v73l38-19V373z"/>
</svg>
