<?xml version="1.0" encoding="utf-8"?>
<!-- Generator: Adobe Illustrator 24.3.0, SVG Export Plug-In . SVG Version: 6.00 Build 0)  -->
<svg version="1.1" id="Layer_1" xmlns="http://www.w3.org/2000/svg" xmlns:xlink="http://www.w3.org/1999/xlink" x="0px" y="0px"
	 viewBox="0 0 64 64" style="enable-background:new 0 0 64 64;" xml:space="preserve">
<style type="text/css">
	.st0{opacity:0.35;fill:#85C141;}
	.st1{fill:#85C141;}
</style>
<path class="st0" d="M48.6,13.7h-3.4v-5c0-0.9-0.7-1.7-1.7-1.7h-4.7l-0.7-5.2C38.1,1.4,37.7,1,37.3,1H35c-0.5,0-0.9,0.4-0.9,0.8
	L33.4,7h-2.9l-0.7-5.2C29.9,1.4,29.4,1,29,1h-2.2c-0.5,0-0.9,0.4-0.9,0.8L25.1,7h-4.7c-0.9,0-1.7,0.7-1.7,1.7v5h-3.4
	c-0.7,0-1.3,0.6-1.3,1.3v14.2c7.9-3.9,16.6-6.4,17.9-6.4s10,2.5,17.9,6.4V15C49.9,14.2,49.4,13.7,48.6,13.7z M22.1,10.3h19.9v3.3
	H22.1V10.3z M24.4,20.3h-6v-3.1h6L24.4,20.3L24.4,20.3z M35,20.3h-6v-3.1h6V20.3z M45.5,20.3h-6v-3.1h6V20.3z"/>
<path class="st1" d="M14.2,57.1c1.1,0,2.4-0.5,3.7-1.4c0.7-0.5,1.6-0.8,2.5-0.8c0.9,0,1.8,0.3,2.5,0.8c1.3,0.9,2.5,1.4,3.7,1.4
	c1.5,0,2.4-0.9,2.5-0.9c0.8-0.8,1.9-1.3,3.1-1.3c1.2,0,2.3,0.5,3.1,1.3c0,0,0.9,0.9,2.4,0.9c1.1,0,2.4-0.5,3.7-1.4
	c0.7-0.5,1.6-0.8,2.5-0.8c0.9,0,1.8,0.3,2.5,0.8c1.3,0.9,2.5,1.4,3.7,1.4c0.4,0,0.8-0.1,1.1-0.2c4-11.2,10.1-16,8.9-17.6
	C54.2,31.8,33.4,25.4,32,25.4S9.8,31.8,4.2,39.3c-1.2,1.6,4.9,6.3,8.9,17.6C13.4,57,13.8,57.1,14.2,57.1z M39.1,33.4
	c0.9-0.4,2.4,0.6,3.2,2.4c0.8,1.8,0.7,3.5-0.2,4c-0.9,0.4-2.4-0.6-3.2-2.4C38.1,35.6,38.2,33.8,39.1,33.4z M21.7,35.8
	c0.8-1.7,2.2-2.8,3.2-2.4c0.9,0.4,1,2.2,0.2,4s-2.2,2.8-3.2,2.4C21,39.3,20.9,37.5,21.7,35.8z"/>
<path class="st0" d="M37.5,63c-2.3,0-4.2-0.8-5.5-1.7c-2.4,1.6-6.7,2.8-11.7-0.2c-6,3.6-11,1.1-12.8-0.8c-0.6-0.7-0.6-1.7,0-2.3
	s1.7-0.6,2.3,0c0.4,0.4,4,3.7,9.5-0.2c0.6-0.4,1.3-0.4,1.9,0c5.7,4,9.4,0.4,9.5,0.2c0.3-0.3,0.7-0.5,1.2-0.5c0.4,0,0.9,0.2,1.2,0.5
	c0.4,0.4,4,3.7,9.5-0.2c0.6-0.4,1.3-0.4,1.9,0c5.7,4,9.4,0.4,9.5,0.2c0.6-0.7,1.7-0.7,2.3,0c0.7,0.6,0.7,1.7,0,2.3
	c-1.9,1.9-6.9,4.4-12.8,0.8C41.5,62.5,39.4,63,37.5,63z"/>
</svg>
