<?xml version="1.0" encoding="utf-8"?>
<!-- Generator: Adobe Illustrator 24.3.0, SVG Export Plug-In . SVG Version: 6.00 Build 0)  -->
<svg version="1.1" id="Layer_1" xmlns="http://www.w3.org/2000/svg" xmlns:xlink="http://www.w3.org/1999/xlink" x="0px" y="0px"
	 viewBox="0 0 64 64" style="enable-background:new 0 0 64 64;" xml:space="preserve">
<style type="text/css">
	.st0{fill:#85C141;}
	.st1{opacity:0.35;fill:#85C141;}
</style>
<g>
	<path class="st0" d="M63.4,34.4c0,0,0.2-2.2-2.6-3.4c-2.8-1.2-6.3-2.5-6.3-2.5l-6.7-9c0,0-1-1.5-3.5-1.5c-2.6,0-29.6,0.1-29.6,0.1
		s-2-0.1-2.5,1.8c0,0.2-0.1,0.4-0.1,0.6l4.5,0c1.5,0,2.7,1.2,2.7,2.7c0,1.5-1.2,2.7-2.7,2.7l-5.2,0c0,0.6-0.1,1.3-0.1,2.1h2.4
		c1.5,0,2.7,1.2,2.7,2.7c0,0.7-0.3,1.4-0.8,1.9c-0.5,0.5-1.2,0.8-1.9,0.8H11c0,0.7,0,1.4,0,2.1h0.5c0,0,0,0,0,0
		c1.5,0,2.7,1.2,2.7,2.7c0,1.5-1.2,2.7-2.7,2.7h-0.3c0,0.2,0,0.3,0,0.5c0,0,0.1,2.4,1.6,2.4c0.2,0,1.3,0,3,0
		c-0.2-0.6-0.3-1.2-0.3-1.9c0-3.3,2.7-6,6-6c3.3,0,6,2.7,6,6c0,0.7-0.1,1.3-0.3,1.9c6.6,0,14.4,0,20.9,0c-0.2-0.6-0.3-1.2-0.3-1.9
		c0-3.3,2.7-6,6-6c3.3,0,6,2.7,6,6c0,0.7-0.1,1.3-0.3,1.9c1.1,0,1.8,0,1.8,0s1.9,0,2.2-2.1C63.7,39.8,63.4,34.4,63.4,34.4z
		 M39.1,28.4v-7.4h6.1c2.3,0.5,6.5,7.4,6.5,7.4H39.1z"/>
	<path class="st1" d="M21.5,37.8c-2.3,0-4.2,1.9-4.2,4.2c0,0.7,0.2,1.3,0.5,1.9c0.7,1.4,2.1,2.4,3.8,2.4c1.7,0,3.1-1,3.8-2.4
		c0.3-0.6,0.5-1.2,0.5-1.9C25.7,39.7,23.8,37.8,21.5,37.8z"/>
	<path class="st1" d="M53.7,37.8c-2.3,0-4.2,1.9-4.2,4.2c0,0.7,0.2,1.3,0.5,1.9c0.7,1.4,2.1,2.4,3.8,2.4c1.7,0,3.1-1,3.8-2.4
		c0.3-0.6,0.5-1.2,0.5-1.9C57.9,39.7,56,37.8,53.7,37.8z"/>
	<path class="st1" d="M16.5,24.5c0.7,0,1.3-0.6,1.3-1.3c0-0.7-0.6-1.3-1.3-1.3l-4.8,0l-9.4,0h0c0,0-0.1,0-0.1,0c0,0-0.1,0-0.1,0
		c-0.1,0-0.1,0-0.1,0c0,0-0.1,0-0.1,0c-0.1,0-0.1,0-0.1,0.1c0,0,0,0-0.1,0c-0.1,0-0.1,0.1-0.1,0.1c0,0,0,0,0,0c0,0-0.1,0.1-0.1,0.2
		c0,0,0,0,0,0c0,0,0,0.1-0.1,0.1c0,0,0,0.1,0,0.1C1,22.9,1,23,1,23.2c0,0.3,0.1,0.7,0.4,0.9c0.1,0.1,0.2,0.2,0.4,0.3c0,0,0,0,0.1,0
		c0.1,0,0.1,0,0.2,0.1c0,0,0.1,0,0.1,0c0,0,0.1,0,0.1,0h0l9.1,0L16.5,24.5z"/>
	<path class="st1" d="M13.5,32C13.5,32,13.5,32,13.5,32c0,0,0.1,0,0.1,0c0,0,0.1,0,0.1,0c0,0,0.1,0,0.1,0c0,0,0.1,0,0.1,0
		c0,0,0.1,0,0.1-0.1c0,0,0.1,0,0.1,0c0,0,0.1-0.1,0.1-0.1c0,0,0,0,0.1,0c0,0,0.1-0.1,0.1-0.1c0,0,0,0,0,0c0,0,0.1-0.1,0.1-0.2
		c0,0,0,0,0-0.1c0-0.1,0-0.1,0.1-0.2c0,0,0,0,0-0.1c0-0.1,0-0.2,0-0.3c0-0.1,0-0.2,0-0.3c0,0,0-0.1,0-0.1c0,0,0-0.1,0-0.1
		c0,0,0-0.1,0-0.1c0,0,0-0.1-0.1-0.1c0,0,0,0-0.1-0.1c0,0-0.1-0.1-0.1-0.1c0,0-0.1,0-0.1-0.1c0,0-0.1-0.1-0.1-0.1c0,0-0.1,0-0.1-0.1
		c0,0-0.1,0-0.1-0.1c0,0-0.1,0-0.1,0c0,0-0.1,0-0.1,0c0,0-0.1,0-0.1,0c0,0-0.1,0-0.1,0c0,0,0,0,0,0l-2.4,0l-5.4,0
		c-0.7,0-1.3,0.6-1.3,1.3c0,0.3,0.1,0.7,0.4,0.9C5.1,31.9,5.4,32,5.7,32H11L13.5,32L13.5,32z"/>
	<path class="st1" d="M12.8,38.3c0-0.7-0.6-1.3-1.3-1.3H11H8.4c-0.7,0-1.3,0.6-1.3,1.3c0,0.3,0.1,0.7,0.4,0.9
		c0.2,0.2,0.5,0.4,0.9,0.4h2.8h0.4C12.2,39.6,12.8,39,12.8,38.3z"/>
</g>
</svg>
